Coordinates
version=1
nRows=6
nColumns=34
inDegrees=yes

Units are S.I. units (second, meters, Newtons, ...)
If the header above contains a line with 'inDegrees', this indicates whether rotational values are in degrees (yes) or radians (no).

endheader
time	pelvis_tilt	pelvis_list	pelvis_rotation	pelvis_tx	pelvis_ty	pelvis_tz	hip_flexion_r	hip_adduction_r	hip_rotation_r	knee_angle_r	ankle_angle_r	subtalar_angle_r	mtp_angle_r	hip_flexion_l	hip_adduction_l	hip_rotation_l	knee_angle_l	ankle_angle_l	subtalar_angle_l	mtp_angle_l	lumbar_extension	lumbar_bending	lumbar_rotation	arm_flex_r	arm_add_r	arm_rot_r	elbow_flex_r	pro_sup_r	arm_flex_l	arm_add_l	arm_rot_l	elbow_flex_l	pro_sup_l
      2.48333330	      8.59597073	     -2.79938296	      7.18761972	     -9.19104895	      0.88326817	      0.45471844	    -12.24837817	      2.07097802	     -2.27987214	      0.00000000	    -13.23388027	    -26.76660316	      0.00000000	    -10.23870837	     -2.55046495	     -4.73352740	      6.34455299	     -6.48876572	    -35.00000000	      0.00000000	     -8.68789502	     -1.06840268	     43.51615427	   -443.28759578	    -33.09415093	   -159.59741663	    121.75840694	     68.61357987	   -272.33724156	     -0.77525038	     18.06494254	     71.56086922	    119.74817918
      2.50000000	      9.82814995	     -2.83756834	      6.90704505	     -9.19370023	      0.88338283	      0.45423899	    -13.53974513	      2.18887983	     -1.40187635	      0.00000000	    -16.26306437	    -30.22623986	      0.00000000	    -11.57387718	     -2.68798517	     -5.03899442	      6.42754750	     -6.25960243	    -35.00000000	      0.00000000	    -10.95920839	     -0.26267526	     45.27475105	   -445.50620395	    -30.02416036	   -161.63077018	    121.15081834	     68.97860677	   -272.13838145	     -1.78511292	     20.58800221	     72.07645434	    119.74817918
      2.51666670	      9.80150136	     -2.83118791	      6.90903255	     -9.19571307	      0.88475147	      0.45455986	    -13.49324213	      2.18173858	     -1.38890747	      0.00000000	    -16.27150011	    -30.23359965	      0.00000000	    -11.51027595	     -2.68323116	     -5.03980839	      6.45830184	     -6.24972765	    -35.00000000	      0.00000000	    -11.11834515	     -0.26416693	     45.32754129	   -445.53653952	    -30.08099465	   -161.58974161	    121.15143258	     68.98134691	   -272.20211342	     -1.76748133	     20.60674905	     72.05686186	    119.74817918
      2.53333330	      9.82242101	     -2.80912255	      6.91301734	     -9.19591042	      0.88530515	      0.45527064	    -13.43289885	      2.16244345	     -1.36186016	      0.00000000	    -16.27310455	    -30.24257142	      0.00000000	    -11.42970052	     -2.67117752	     -5.06659626	      6.52570077	     -6.24055466	    -35.00000000	      0.00000000	    -11.28290947	     -0.25808104	     45.41621964	   -445.56121537	    -30.15125050	   -161.54515522	    121.15171365	     68.98549321	   -272.29950918	     -1.76445876	     20.63445353	     72.02922289	    119.74817918
      2.55000000	      9.85433713	     -2.81377275	      6.79862602	     -9.19764464	      0.88719897	      0.45494754	    -13.29376207	      2.12658977	     -1.33838748	      0.00000000	    -16.26440854	    -30.25084074	      0.00000000	    -11.33194213	     -2.63550759	     -5.07438090	      6.55254612	     -6.24202741	    -35.00000000	      0.00000000	    -11.50344513	     -0.21768470	     45.45400302	   -445.54452230	    -30.20424396	   -161.50262837	    121.15327053	     68.99006265	   -272.41591093	     -1.76008313	     20.66398938	     71.99661906	    119.74817918
      2.56666670	      9.77213862	     -2.83103835	      6.68420308	     -9.19952364	      0.88752282	      0.45516150	    -13.03248883	      2.09806647	     -1.24061037	      0.00000000	    -16.21719827	    -30.24969928	      0.00000000	    -11.17831364	     -2.60198842	     -5.08184821	      6.49447548	     -6.23154386	    -35.00000000	      0.00000000	    -11.91916080	     -0.18535727	     45.35665321	   -445.52741606	    -30.27497557	   -161.46105097	    121.15945590	     68.99442003	   -272.48055776	     -1.68072622	     20.68806510	     71.93809154	    119.74817918
